<?xml version="1.0" encoding="utf-8"?>
<!-- Generator: Adobe Illustrator 25.2.0, SVG Export Plug-In . SVG Version: 6.00 Build 0)  -->
<svg version="1.1" id="Layer_1" xmlns="http://www.w3.org/2000/svg" xmlns:xlink="http://www.w3.org/1999/xlink" x="0px" y="0px"
	 viewBox="0 0 70 70" style="enable-background:new 0 0 70 70;" xml:space="preserve">
<style type="text/css">
	.st0{fill:#00aaeb;}
</style>
<g id="WBKoVL_6_">
	<g>
		<path class="st0" d="M35.1,60c-2.7,0.3-5.4-0.4-7.9-1.5c-3.9-1.8-7.1-4.5-9.7-8c-0.5-0.6-0.5-1,0.2-1.5c2.1-1.6,3-3.9,3.7-6.3
			c0.5-1.7,1-3.4,1.7-5.1c0.7-1.8,2-3.2,3.7-4.2c0.2-0.1,0.3-0.2,0.4-0.3c0,0,0-0.1,0.1-0.2c-0.8-0.8-1.6-1.7-2.4-2.6
			c-3.1-3.6-4.6-7.8-5.1-12.5c-0.1-1.1-0.2-2.3-0.2-3.4c0-1.3,0.5-1.8,1.8-1.6c3.5,0.5,6.1,2.4,8.3,5.1c2.7,3.4,3.7,7.4,4,11.6
			c0.1,1.4,0.1,1.4,1.6,1.3c0-0.5,0-1,0-1.5c-0.3-3.9-1-7.7-2.8-11.3c-1-2-2.2-3.8-4-5c-0.7-0.5-0.8-0.9-0.4-1.6
			c0.8-1.4,1.8-1.8,3.2-1c1.9,1,3,2.7,4,4.5c1.6,3.1,2.4,6.5,2.8,10c0.2,1.9,0.4,3.8,0.5,5.8c0,0.5,0.3,0.7,0.7,0.8
			c4.8,1.2,8.5,3.8,11.3,7.8c0.9,1.2,1.5,2.6,2.2,3.9c0.1,0.2,0.1,0.6,0,0.8c-1.3,2.9-3.1,5.5-6.1,6.9c-1.1,0.5-2.3,0.6-3.5,0.8
			c-1.4,0.2-2.9,0.3-4.3,0.6c-1.7,0.4-2.7,1.6-3.1,3.2C35.5,57,35.4,58.4,35.1,60z M40.7,41.3c1.3,0,2.1-0.8,2.1-2
			c0-1.3-0.8-2.1-2.1-2.1s-2,0.8-2,2.1C38.6,40.6,39.4,41.3,40.7,41.3z"/>
	</g>
</g>
</svg>
