<?xml version="1.0" encoding="utf-8"?>
<!-- Generator: Adobe Illustrator 25.2.0, SVG Export Plug-In . SVG Version: 6.00 Build 0)  -->
<svg version="1.1" id="Layer_1" xmlns="http://www.w3.org/2000/svg" xmlns:xlink="http://www.w3.org/1999/xlink" x="0px" y="0px"
	 viewBox="0 0 70 70" style="enable-background:new 0 0 70 70;" xml:space="preserve">
<style type="text/css">
	.st0{fill:#00aaeb;}
</style>
<path class="st0" d="M49.3,38.6c-0.9-3-2.2-5.9-3.6-8.7c-2.8-5.5-6-10.6-9.4-15.8c-0.7-1-2.1-1.1-2.8,0c-2.9,4.4-5.7,8.9-8.2,13.6
	c-1.6,2.9-3,5.9-4.1,9c-0.9,2.5-1.3,5-0.8,7.7c1.3,7,7.5,12.3,14.9,12.2c2.9,0,5.8-1,8.4-2.8C48.3,50.6,51,44.3,49.3,38.6
	 M29.5,50.9l-9-9.6l7.5,2.8l17.4-11.7L29.5,50.9z"/>
</svg>
