<?xml version="1.0" encoding="utf-8"?>
<!-- Generator: Adobe Illustrator 25.2.0, SVG Export Plug-In . SVG Version: 6.00 Build 0)  -->
<svg version="1.1" id="Layer_1" xmlns="http://www.w3.org/2000/svg" xmlns:xlink="http://www.w3.org/1999/xlink" x="0px" y="0px"
	 viewBox="0 0 264.1 259.7" style="enable-background:new 0 0 264.1 259.7;" xml:space="preserve">
<style type="text/css">
	.st0{fill:#00b2f2;}
</style>
<path class="st0" d="M262.7,149.2c-3.5-3.2-7-6.5-10.5-9.7c-2.1-1.9-4.1-3.8-6.2-5.7c-3.5-3.2-7-6.5-10.5-9.7
	c-2.1-1.9-4.1-3.8-6.2-5.7c-3.5-3.2-7-6.5-10.5-9.7c-2.1-1.9-4.1-3.8-6.2-5.7c-3.5-3.2-7-6.4-10.5-9.7c-2.1-1.9-4.1-3.8-6.2-5.8
	c-3.5-3.2-7-6.4-10.5-9.7c-2.7-2.5-5.5-5.1-8.2-7.6c-0.1-0.1-0.2-0.1-0.3-0.2c-4.5-4.1-8.9-8.2-13.4-12.4c-5-4.6-10-9.2-15-13.8
	c-5.6-5.2-11.2-10.3-16.7-15.5c-5-4.6-10-9.3-15.1-13.9c-4.8-4.4-9.5-8.8-14.3-13.2c-0.5-0.4-0.9-0.8-1.4-1.2
	c-1.7,1.8-2.8,3.8-3.2,6.1c-0.5,2.5-0.2,5,0.1,7.5c0.3,2.4,0.6,4.8,0.3,7.3c-0.5,4.9-4.5,9.6-9.2,10.8c-1.9,0.5-3.9,0.6-5.9,0.5
	c-2.6-0.1-5.3-0.3-7.9,0c-4.4,0.5-7.5,2.9-9.7,6.6c-1.7,3-1.8,6.2-1.5,9.5c0.3,2.6,0.6,5.3,0.6,7.9c-0.1,5.7-4.4,10.8-9.9,12
	c-2.6,0.6-5.2,0.3-7.9,0.3c-2,0-4-0.1-5.9,0.2c-4.9,0.6-9.3,4.8-10.4,9.7c-0.5,2.4-0.3,4.9-0.1,7.3c0.3,2.4,0.6,4.7,0.5,7.1
	c-0.4,6.7-5.9,12-12.5,12.1c-2.6,0-5.2-0.1-7.8-0.1c-2.7,0-5.3,0.4-7.7,1.8c-1.1,0.6-2,1.4-2.8,2.3c0.5,0.5,0.9,1,1.4,1.4
	c3.5,3.2,7,6.5,10.5,9.7c2.1,1.9,4.1,3.8,6.2,5.7c3.5,3.2,7,6.5,10.5,9.7c2.1,1.9,4.1,3.8,6.2,5.7c3.5,3.2,7,6.5,10.5,9.7
	c2.1,1.9,4.1,3.8,6.2,5.7c3.5,3.2,7,6.4,10.5,9.7c2.1,1.9,4.1,3.8,6.2,5.8c3.5,3.2,7,6.4,10.5,9.7c2.7,2.5,5.5,5.1,8.2,7.6
	c0.1,0.1,0.2,0.1,0.3,0.2c4.5,4.1,8.9,8.2,13.4,12.4c5,4.6,10,9.2,15,13.8c5.6,5.2,11.2,10.3,16.7,15.5c5,4.6,10,9.3,15.1,13.9
	c4.8,4.4,9.5,8.8,14.3,13.2c0.5,0.4,0.9,0.8,1.4,1.2c1.7-1.8,2.8-3.8,3.2-6.1c0.5-2.5,0.2-5-0.1-7.5c-0.3-2.4-0.6-4.8-0.3-7.3
	c0.5-4.9,4.5-9.6,9.2-10.8c1.9-0.5,3.9-0.6,5.9-0.5c2.6,0.1,5.3,0.3,7.9,0c4.4-0.5,7.5-2.9,9.7-6.6c1.7-3,1.8-6.2,1.5-9.5
	c-0.3-2.6-0.6-5.3-0.6-7.9c0.1-5.7,4.4-10.8,9.9-12c2.6-0.6,5.2-0.3,7.9-0.3c2,0,4,0.1,5.9-0.2c4.9-0.6,9.3-4.8,10.4-9.7
	c0.5-2.4,0.3-4.9,0.1-7.3c-0.2-2.4-0.6-4.7-0.5-7.1c0.4-6.7,5.9-12,12.5-12.1c2.6,0,5.2,0.1,7.8,0.1c2.7,0,5.3-0.4,7.7-1.8
	c1.1-0.6,2-1.4,2.8-2.3C263.7,150.1,263.2,149.6,262.7,149.2z"/>
</svg>
