<?xml version="1.0" encoding="utf-8"?>
<!-- Generator: Adobe Illustrator 25.2.0, SVG Export Plug-In . SVG Version: 6.00 Build 0)  -->
<svg version="1.1" id="Layer_1" xmlns="http://www.w3.org/2000/svg" xmlns:xlink="http://www.w3.org/1999/xlink" x="0px" y="0px"
	 viewBox="0 0 70 70" style="enable-background:new 0 0 70 70;" xml:space="preserve">
<style type="text/css">
	.st0{fill:#00aaeb;}
</style>
<g id="_x35_OlqxG_10_">
	<g>
		<g>
			<path class="st0" d="M35,48.4c-7.5-0.2-13.3-6-13.3-13.3c0-7.5,5.9-13.4,13.4-13.4c7.4,0,13.3,5.9,13.3,13.4
				C48.3,42.5,42.4,48.2,35,48.4z"/>
			<path class="st0" d="M45.4,22.4c0.2-0.3,0.4-0.8,0.7-1.2c1-1.1,2.1-2.2,3.2-3.2c0.9-0.9,1.9-0.9,2.7-0.1c0.8,0.8,0.8,1.8,0,2.7
				c-1.1,1.2-2.2,2.3-3.4,3.4c-0.6,0.6-1.3,0.7-2.1,0.3C45.8,24,45.5,23.4,45.4,22.4z"/>
			<path class="st0" d="M22.5,45.4c1.5,0,2.6,1.6,1.8,2.7c-1.2,1.5-2.7,2.9-4.2,4.2c-0.6,0.5-1.6,0.3-2.2-0.3
				c-0.6-0.6-0.9-1.6-0.3-2.2c1.3-1.5,2.8-2.8,4.2-4.2C22,45.5,22.3,45.5,22.5,45.4z"/>
			<path class="st0" d="M54.9,33.1c0.8,0,1.5,0,2.3,0c1.2,0.1,2,0.9,1.9,1.9c0,1-0.8,1.8-1.9,1.9c-1.6,0-3.1,0-4.7,0
				c-1.2,0-2-0.9-2-1.9c0-1,0.9-1.8,2.1-1.9C53.4,33.1,54.1,33.1,54.9,33.1z"/>
			<path class="st0" d="M36.9,54.8c0,0.8,0,1.5,0,2.3c0,1.2-0.8,2-1.9,2c-1.1,0-1.9-0.8-1.9-2c0-1.5,0-3,0-4.5c0-1.2,0.8-2,1.9-2
				c1,0,1.9,0.8,1.9,2C36.9,53.3,36.9,54.1,36.9,54.8z"/>
			<path class="st0" d="M33.1,15.1c0-0.7,0-1.4,0-2.1c0-1.2,0.8-2,1.9-2c1.1,0,1.9,0.8,1.9,1.9c0,1.6,0,3.1,0,4.7
				c0,1.1-0.9,1.9-1.9,1.9c-1,0-1.9-0.8-1.9-2c0-0.1,0-0.2,0-0.3C33.1,16.5,33.1,15.8,33.1,15.1z"/>
			<path class="st0" d="M15.1,36.9c-0.8,0-1.5,0-2.3,0c-1.2-0.1-2-0.8-2-1.9c0-1.1,0.8-1.8,2-1.9c1.5,0,3,0,4.5,0c1.2,0,2,0.9,2,1.9
				c0,1-0.8,1.8-2,1.9C16.6,36.9,15.9,36.9,15.1,36.9z"/>
			<path class="st0" d="M24.6,22.5c-0.1,1.6-1.8,2.6-2.9,1.7c-1.4-1.2-2.7-2.5-4-3.9c-0.6-0.7-0.4-1.6,0.2-2.3
				c0.7-0.7,1.7-0.9,2.4-0.3c1.3,1.2,2.6,2.5,3.9,3.8C24.4,21.8,24.5,22.3,24.6,22.5z"/>
			<path class="st0" d="M45.4,47.4c0.2-1.7,1.9-2.5,3-1.5c1.3,1.1,2.6,2.4,3.8,3.7c0.7,0.7,0.5,1.7-0.1,2.4
				c-0.7,0.7-1.7,0.9-2.5,0.2c-1.3-1.2-2.5-2.4-3.7-3.7C45.6,48.2,45.5,47.6,45.4,47.4z"/>
		</g>
	</g>
</g>
</svg>
