<?xml version="1.0" encoding="utf-8"?>
<!-- Generator: Adobe Illustrator 26.2.1, SVG Export Plug-In . SVG Version: 6.00 Build 0)  -->
<svg version="1.1" id="Capa_1" xmlns="http://www.w3.org/2000/svg" xmlns:xlink="http://www.w3.org/1999/xlink" x="0px" y="0px"
	 viewBox="0 0 297 297" style="enable-background:new 0 0 297 297;" xml:space="preserve">
<g>
	<path d="M165.8,297c-16.9,0-24-16.5-26.3-21.9c-1.9-4.5-4.4-7.1-6.6-7.1c-1.3,0-2.8,0.9-3.6,2.2C118.6,287,100,297,79.3,297
		c-34.2,0-62-29.5-62-65.8c0-22.4,8.3-41.2,22.1-50.2c3.9-2.5,5.8-5,5.8-7.3c0-3-3-5.2-6-5.8C15.4,162.8,0,144.4,0,120.9
		c0-26.2,20.1-47.5,44.7-47.5c11.3,0,22.7,5.1,30.5,13.5c3.6,3.9,7.6,5.7,12.8,5.7c8.8,0,16.3-6.9,16.5-15c0-2.3-0.1-10.5-0.1-13.5
		c0-0.1,0-0.1,0-0.2c0-35.9,27-64,61.5-64c34.2,0,62,29.5,62,65.8c0,15.8-7.2,33.1-12.5,45.7l-0.2,0.6c-3.8,9.1-3.7,17.2,0.2,23.6
		c4.5,7.3,13.7,11.8,24.2,11.8c1.1,0,2.3-0.1,3.4-0.2c2.6-0.2,7.2-0.4,9.6-0.5c0.2,0,0.5,0,0.7,0c24.1,0,43.8,21.3,43.8,47.5
		s-20.1,47.5-44.7,47.5c-12.8,0-22.6-7.3-30.4-13.1c-1-0.7-1.9-1.4-2.9-2.2c-4.2-3-8-4.4-12.3-4.4c-4.9,0-9.6,2.2-13.1,6.1
		c-3.8,4.1-5.7,9.6-5.6,15.3c0.1,3.3,0.8,5.5,1.9,8.8c1.1,3.3,2.4,7.3,3.3,13c1.1,7.4-0.9,14.8-5.8,20.8
		C182,293,173.9,297,165.8,297z"/>
</g>
</svg>
