<?xml version="1.0" encoding="utf-8"?>
<!-- Generator: Adobe Illustrator 26.2.1, SVG Export Plug-In . SVG Version: 6.00 Build 0)  -->
<svg version="1.1" id="Layer_1" xmlns="http://www.w3.org/2000/svg" xmlns:xlink="http://www.w3.org/1999/xlink" x="0px" y="0px"
	 viewBox="0 0 106.1 27.1" style="enable-background:new 0 0 106.1 27.1;" xml:space="preserve">
<style type="text/css">
	path, polygon, rect{fill:#00b2f2;}
	.st0{opacity:0.75;}
	.st1{opacity:0.75;}
</style>
<g>
	<g id="XMLID_351_">
		<g id="XMLID_391_">
			<polygon id="XMLID_392_" points="11.2,24.8 11.2,21.1 11.6,21.1 11.6,24.4 13.7,24.4 13.7,24.8 			"/>
		</g>
		<g id="XMLID_387_">
			<path id="XMLID_388_" d="M20.9,24.8l-0.5-1h-2l-0.4,1h-0.3h-0.1l1.7-3.7h0.3l1.8,3.7H20.9z M20.2,23.4l-0.8-1.8l-0.8,1.8H20.2z"
				/>
		</g>
		<g id="XMLID_382_">
			<path id="XMLID_383_" d="M25.4,24.8v-3.7h1.5c0.4,0,0.8,0.1,1,0.3c0.2,0.2,0.2,0.4,0.2,0.6c0,0.4-0.2,0.7-0.5,0.8
				c0.4,0.2,0.7,0.5,0.7,0.9c0,0.6-0.5,1-1.3,1L25.4,24.8L25.4,24.8z M27,24.4c0.6,0,0.9-0.3,0.9-0.7c0-0.5-0.6-0.6-1-0.6h-1.1v1.3
				C25.8,24.4,27,24.4,27,24.4z M26.9,22.7c0.5,0,0.8-0.3,0.8-0.7c0-0.4-0.3-0.6-0.8-0.6h-1.1v1.3C25.8,22.7,26.9,22.7,26.9,22.7z"
				/>
		</g>
		<g id="XMLID_378_">
			<path id="XMLID_379_" d="M34.3,24.9c-1.1,0-1.8-0.8-1.8-1.9c0-0.9,0.7-1.9,1.9-1.9c1.1,0,1.8,0.8,1.8,1.9
				C36.1,23.9,35.4,24.9,34.3,24.9z M34.3,21.4c-0.8,0-1.4,0.7-1.4,1.5c0,0.9,0.6,1.5,1.4,1.5c0.8,0,1.4-0.7,1.4-1.5
				C35.7,22.1,35.1,21.4,34.3,21.4z"/>
		</g>
		<g id="XMLID_374_">
			<path id="XMLID_375_" d="M43.1,24.8l-1.2-1.5h-1v1.5h-0.4v-3.7H42c0.4,0,0.8,0.1,1,0.4c0.2,0.2,0.3,0.4,0.3,0.7
				c0,0.6-0.4,1-1,1.1l1.2,1.5H43.1z M42,22.9c0.6,0,1-0.3,1-0.7c0-0.5-0.4-0.7-0.9-0.7H41V23h1V22.9z"/>
		</g>
		<g id="XMLID_370_">
			<path id="XMLID_371_" d="M50.7,24.8l-0.5-1h-2l-0.4,1h-0.3h-0.1l1.7-3.7h0.3l1.8,3.7H50.7z M50,23.4l-0.8-1.8l-0.8,1.8H50z"/>
		</g>
		<g id="XMLID_368_">
			<polygon id="XMLID_369_" points="55.7,24.8 55.7,21.5 54.5,21.5 54.5,21.1 57.4,21.1 57.4,21.5 56.1,21.5 56.1,24.8 			"/>
		</g>
		<g id="XMLID_364_">
			<path id="XMLID_365_" d="M63,24.9c-1.1,0-1.8-0.8-1.8-1.9c0-0.9,0.7-1.9,1.9-1.9c1.1,0,1.8,0.8,1.8,1.9
				C64.8,23.9,64.1,24.9,63,24.9z M63,21.4c-0.8,0-1.4,0.7-1.4,1.5c0,0.9,0.6,1.5,1.4,1.5c0.8,0,1.4-0.7,1.4-1.5
				C64.4,22.1,63.8,21.4,63,21.4z"/>
		</g>
		<g id="XMLID_360_">
			<path id="XMLID_361_" d="M71.7,24.8l-1.2-1.5h-1v1.5h-0.4v-3.7h1.6c0.4,0,0.8,0.1,1,0.4c0.2,0.2,0.3,0.4,0.3,0.7
				c0,0.6-0.4,1-1,1.1l1.2,1.5H71.7z M70.6,22.9c0.6,0,1-0.3,1-0.7c0-0.5-0.4-0.7-0.9-0.7h-1.1V23h1V22.9z"/>
		</g>
		<g id="XMLID_358_">
			<rect id="XMLID_359_" x="76.4" y="21.1" width="0.4" height="3.7"/>
		</g>
		<g id="XMLID_354_">
			<path id="XMLID_355_" d="M82.9,24.9c-1.1,0-1.8-0.8-1.8-1.9c0-0.9,0.7-1.9,1.9-1.9c1.1,0,1.8,0.8,1.8,1.9
				C84.8,23.9,84.1,24.9,82.9,24.9z M82.9,21.4c-0.8,0-1.4,0.7-1.4,1.5c0,0.9,0.6,1.5,1.4,1.5s1.4-0.7,1.4-1.5
				C84.4,22.1,83.8,21.4,82.9,21.4z"/>
		</g>
		<g id="XMLID_352_">
			<path id="XMLID_353_" d="M90.3,24.8c-0.6,0-1-0.2-1.5-0.6h-0.1l0.3-0.3h0.1c0.4,0.4,0.7,0.5,1.2,0.5s0.8-0.3,0.8-0.6
				c0-0.3-0.2-0.5-0.9-0.7c-0.9-0.2-1.3-0.5-1.3-1.1s0.5-1,1.2-1c0.5,0,0.9,0.1,1.3,0.4h0.1l-0.3,0.3h-0.1c-0.3-0.3-0.6-0.4-1-0.4
				c-0.5,0-0.8,0.3-0.8,0.6c0,0.3,0.2,0.5,1,0.7c0.9,0.2,1.2,0.5,1.2,1C91.6,24.4,91.1,24.8,90.3,24.8z"/>
		</g>
	</g>
</g>
<g>
	<g class="st0">
		<path class="st1" d="M65.5,5.2L65.5,5.2c1.1,0,2,0.3,2.9,1c0.2,0.1,0.4,0.3,0.6,0.5c0.3,0.3,0.4,0.5,0.5,0.6s0.2,0.2,0.2,0.2
			L68,8.6l0,0c-0.1-0.1-0.2-0.3-0.4-0.5c-0.6-0.6-1.3-0.9-2.1-0.9c-0.7,0-1.4,0.3-2,0.8c-0.2,0.2-0.4,0.4-0.4,0.5
			c-0.4,0.6-0.6,1.2-0.6,1.9c0,0.8,0.2,1.4,0.7,2.1c0.2,0.2,0.3,0.3,0.5,0.5c0.6,0.4,1.2,0.6,1.8,0.6s1.2-0.2,1.7-0.6
			c0.1-0.1,0.3-0.2,0.5-0.4c0.1-0.1,0.2-0.3,0.3-0.4l0,0l1.7,1.1c-0.1,0.2-0.3,0.4-0.5,0.6c-0.2,0.3-0.4,0.4-0.5,0.5
			c-0.2,0.2-0.4,0.3-0.6,0.4c-0.8,0.5-1.7,0.8-2.6,0.8h-0.1c-1,0-1.9-0.3-2.7-0.8c-0.2-0.1-0.3-0.2-0.5-0.3
			c-0.3-0.2-0.4-0.4-0.6-0.6c-0.3-0.3-0.5-0.6-0.6-0.9c-0.1-0.2-0.3-0.5-0.4-0.9c-0.2-0.6-0.3-1.1-0.3-1.6v-0.2
			c0-0.8,0.2-1.6,0.6-2.4c0.1-0.2,0.3-0.4,0.4-0.7c0.1-0.2,0.3-0.4,0.5-0.6c0.3-0.3,0.5-0.5,0.7-0.6C63.5,5.5,64.5,5.2,65.5,5.2z"/>
		<path class="st1" d="M76.4,5.2c1.1,0,2.2,0.4,3.1,1.1c0.1,0.1,0.3,0.3,0.6,0.5c0.5,0.5,0.8,1.1,1,1.7c0.2,0.6,0.4,1.3,0.4,2
			c0,0.9-0.2,1.7-0.6,2.5c-0.1,0.3-0.3,0.6-0.6,0.9c-0.3,0.3-0.5,0.5-0.7,0.7s-0.4,0.3-0.5,0.4c-0.8,0.5-1.7,0.8-2.6,0.8h-0.1
			c-0.9,0-1.9-0.3-2.7-0.8c-0.2-0.1-0.3-0.2-0.4-0.4c-0.3-0.2-0.5-0.4-0.6-0.6c-0.1-0.2-0.3-0.3-0.4-0.5s-0.3-0.4-0.4-0.6
			c-0.3-0.7-0.5-1.4-0.5-2.2v-0.2c0-0.8,0.2-1.6,0.6-2.4c0.1-0.2,0.2-0.4,0.4-0.7c0.1-0.2,0.3-0.4,0.5-0.6c0.3-0.3,0.6-0.5,0.7-0.6
			C74.4,5.5,75.4,5.2,76.4,5.2z M73.3,10.4c0,0.8,0.2,1.4,0.7,2.1c0.2,0.2,0.4,0.4,0.5,0.5c0.6,0.4,1.1,0.6,1.8,0.6
			c0.8,0,1.5-0.3,2.1-0.9c0.2-0.3,0.4-0.5,0.5-0.7c0.3-0.5,0.4-1,0.4-1.6l0,0c0-0.8-0.3-1.5-0.8-2.2c-0.2-0.3-0.4-0.4-0.5-0.4
			c-0.1-0.1-0.2-0.2-0.3-0.2c-0.5-0.2-0.9-0.4-1.4-0.4c-0.7,0-1.4,0.3-2,0.8C74.1,8.2,74,8.4,74,8.5C73.5,9.1,73.3,9.7,73.3,10.4z"
			/>
		<path class="st1" d="M88.4,5.2c1.1,0,2.2,0.4,3.1,1.1c0.1,0.1,0.3,0.3,0.6,0.5c0.5,0.5,0.8,1.1,1,1.7c0.2,0.6,0.4,1.3,0.4,2
			c0,0.9-0.2,1.7-0.6,2.5c-0.1,0.3-0.3,0.6-0.6,0.9c-0.3,0.3-0.5,0.5-0.7,0.7s-0.4,0.3-0.5,0.4c-0.8,0.5-1.7,0.8-2.6,0.8h-0.1
			c-0.9,0-1.9-0.3-2.7-0.8c-0.2-0.1-0.3-0.2-0.4-0.4c-0.3-0.2-0.5-0.4-0.6-0.6c-0.1-0.2-0.3-0.3-0.4-0.5s-0.3-0.4-0.4-0.6
			c-0.3-0.7-0.5-1.4-0.5-2.2v-0.2c0-0.8,0.2-1.6,0.6-2.4c0.1-0.2,0.2-0.4,0.4-0.7c0.1-0.2,0.3-0.4,0.5-0.6c0.3-0.3,0.6-0.5,0.7-0.6
			C86.4,5.5,87.4,5.2,88.4,5.2z M85.4,10.4c0,0.8,0.2,1.4,0.7,2.1c0.2,0.2,0.4,0.4,0.5,0.5c0.6,0.4,1.1,0.6,1.8,0.6
			c0.8,0,1.5-0.3,2.1-0.9c0.2-0.3,0.4-0.5,0.5-0.7c0.3-0.5,0.4-1,0.4-1.6l0,0c0-0.8-0.3-1.5-0.8-2.2c-0.2-0.3-0.4-0.4-0.5-0.4
			c-0.1-0.1-0.2-0.2-0.3-0.2c-0.5-0.2-0.9-0.4-1.4-0.4c-0.7,0-1.4,0.3-2,0.8C86.2,8.2,86,8.4,86,8.5C85.6,9.1,85.4,9.7,85.4,10.4z"
			/>
		<path class="st1" d="M101,5.2c1,0,1.9,0.2,2.7,0.7c0.2,0.1,0.5,0.3,0.8,0.6s0.4,0.4,0.5,0.5c0.2,0.2,0.3,0.4,0.4,0.6
			c0.5,0.8,0.7,1.7,0.7,2.7c0,1.1-0.4,2.2-1.1,3.2c-0.1,0.1-0.3,0.3-0.5,0.6l-0.2,0.2c-1,0.8-2.1,1.2-3.3,1.2
			c-0.9,0-1.7-0.3-2.4-0.8c-0.1-0.1-0.3-0.2-0.5-0.5L98,14.3v5.6h-2l0,0V5.4l0,0h2v1.1c0.3-0.3,0.4-0.4,0.5-0.4
			c0.2-0.2,0.4-0.3,0.5-0.4c0.2-0.1,0.4-0.2,0.6-0.3c0.2,0,0.4-0.1,0.8-0.2C100.6,5.2,100.8,5.2,101,5.2z M98,10.2v0.4
			c0,0.2,0.1,0.5,0.2,0.8c0.1,0.2,0.2,0.4,0.3,0.6c0.1,0.2,0.3,0.3,0.4,0.6c0.2,0.2,0.4,0.3,0.4,0.4c0.2,0.1,0.3,0.2,0.4,0.3
			c0.4,0.2,0.8,0.3,1.2,0.3h0.1c0.6,0,1.2-0.2,1.8-0.6c0.1-0.1,0.2-0.2,0.4-0.4c0.3-0.4,0.6-0.8,0.7-1.2c0.1-0.3,0.1-0.6,0.1-1
			c0-0.8-0.3-1.5-0.8-2.1c-0.2-0.2-0.4-0.4-0.4-0.4c-0.6-0.4-1.2-0.7-1.8-0.7h0c-0.4,0-0.8,0.1-1.2,0.3c-0.2,0.1-0.5,0.3-0.7,0.5
			c-0.3,0.3-0.4,0.4-0.5,0.5c-0.1,0.2-0.2,0.3-0.3,0.4c-0.1,0.1-0.1,0.3-0.2,0.5C98.1,9.8,98,10,98,10.2z"/>
	</g>
	<g>
		<path d="M6.2,0h0.6l0,0v2l0,0H6.3C5.4,2,4.8,2.4,4.4,3.3C4.2,3.8,4,4.5,4,5.3h2.8l0,0v2l0,0H4v8l0,0H2v-8H0l0,0v-2l0,0h1.9l0,0
			c0-1.8,0.5-3.2,1.5-4.2c0.4-0.3,0.8-0.6,1.1-0.8C5.1,0.2,5.7,0,6.2,0z"/>
		<path d="M12.6,5.2c1.2,0,2.2,0.4,3,1.3V5.4l0,0h2l0,0v10l0,0h-2l0,0v-1c-0.8,0.9-1.8,1.3-3,1.3l0,0c-1.5,0-2.8-0.6-3.9-1.8
			c-0.8-1-1.2-2.1-1.2-3.4l0,0c0-1.5,0.6-2.9,1.8-4C10.2,5.6,11.3,5.2,12.6,5.2z M9.5,10.4c0,1.1,0.5,2,1.4,2.7
			c0.5,0.3,1,0.5,1.5,0.5h0.2c0.7,0,1.3-0.3,1.9-0.8c0.7-0.7,1-1.5,1-2.4l0,0c0-1.1-0.5-2-1.4-2.7c-0.5-0.3-1-0.5-1.5-0.5h-0.2
			c-0.8,0-1.6,0.4-2.3,1.2C9.7,9,9.5,9.7,9.5,10.4z"/>
		<path d="M25.1,5.3h0.3c0.7,0,1.4,0.2,2.1,0.6l0,0C27.2,7.2,27,7.9,27,8c-0.7-0.4-1.3-0.7-1.8-0.7H25c-0.7,0-1.3,0.2-1.8,0.7
			c-0.4,0.5-0.6,1.4-0.6,2.7v4.6l0,0h-2l0,0V5.5l0,0h2l0,0v0.7C23.5,5.6,24.3,5.3,25.1,5.3z"/>
		<path d="M34,5.3L34,5.3c1.4,0,2.5,0.4,3.4,1.2c0.8-0.8,1.9-1.2,3.3-1.2H41c1.8,0,3.1,0.7,3.9,2.1c0.3,0.5,0.4,1.1,0.4,1.6v6.3l0,0
			h-2l0,0V9c0-0.8-0.4-1.3-1.3-1.6c-0.3-0.1-0.6-0.1-1-0.1h-0.4c-1.1,0-1.8,0.4-2.1,1.1c-0.1,0.2-0.1,0.4-0.1,0.7v6.2l0,0h-2l0,0v-6
			c0-0.7-0.2-1.3-0.7-1.5c-0.4-0.3-0.9-0.4-1.5-0.4H34c-0.8,0-1.5,0.1-1.8,0.4c-0.5,0.3-0.7,0.8-0.7,1.5v6l0,0h-2l0,0V5.4l0,0h2l0,0
			V6l0,0c0.4-0.2,0.8-0.4,1.4-0.5C33.2,5.4,33.6,5.3,34,5.3z"/>
		<path d="M52.9,5.2c1.2,0,2.2,0.4,3,1.3V5.4l0,0h2l0,0v10l0,0h-2l0,0v-1c-0.8,0.9-1.8,1.3-3,1.3l0,0c-1.5,0-2.8-0.6-3.9-1.8
			c-0.8-1-1.2-2.1-1.2-3.4l0,0c0-1.5,0.6-2.9,1.8-4C50.6,5.6,51.7,5.2,52.9,5.2z M49.8,10.4c0,1.1,0.5,2,1.4,2.7
			c0.5,0.3,1,0.5,1.5,0.5H53c0.7,0,1.3-0.3,1.9-0.8c0.7-0.7,1-1.5,1-2.4l0,0c0-1.1-0.5-2-1.4-2.7c-0.5-0.3-1-0.5-1.5-0.5h-0.2
			c-0.8,0-1.6,0.4-2.3,1.2C50,9,49.8,9.7,49.8,10.4z"/>
	</g>
</g>
</svg>
