<?xml version="1.0" encoding="utf-8"?>
<!-- Generator: Adobe Illustrator 26.2.1, SVG Export Plug-In . SVG Version: 6.00 Build 0)  -->
<svg version="1.1" id="a" xmlns="http://www.w3.org/2000/svg" xmlns:xlink="http://www.w3.org/1999/xlink" x="0px" y="0px"
	 viewBox="0 0 247.6 254.4" style="enable-background:new 0 0 247.6 254.4;" xml:space="preserve">
<style type="text/css">
	.st0{fill:#EF8614;}
</style>
<path class="st0" d="M70,30.1C41.4,44.2,2,70.8,6.4,90.6c3.6,16,33.1,14,39,32.9c8.3,26.6-40.4,58.9-32.8,72
	c6.6,11.4,36.3-5.4,65.6,11.5c18.5,10.6,15.4,22.3,32,34.3c37,26.8,105.7,7.3,108.7-12.1c2-13-25.9-24.1-22.2-34.1
	c4.4-11.9,46.7-3.3,50.5-15.2c2.6-8.1-16.1-15.3-16.9-34.1c-0.5-9.8,4.5-11.6,3.2-20.9c-1.5-11-14.1-21.5-18-26.7
	c-14.2-18.9,28.7-56.9,19.9-78.3C224.5-6.4,137.4-3.2,70,30.1z"/>
</svg>
